<svg width="1440" height="10531" viewBox="0 0 1440 10531" fill="none" xmlns="http://www.w3.org/2000/svg">
<g clip-path="url(#clip0_806_2164)">
<rect width="1440" height="10531" fill="#202020"/>
<g filter="url(#filter0_f_806_2164)">
<ellipse cx="1170.94" cy="9452.96" rx="272.762" ry="515.723" transform="rotate(37.6406 1170.94 9452.96)" fill="#FC9046" fill-opacity="0.5"/>
</g>
<rect y="9247" width="1440" height="976" fill="white"/>
<path opacity="0.7" d="M299.594 9431.42C299.921 9430.54 301.236 9430.86 301.125 9431.79L300.191 9439.61C298.985 9449.71 304.857 9459.32 314.394 9462.86L321.78 9465.59C322.661 9465.92 322.343 9467.24 321.411 9467.13L313.589 9466.19C303.489 9464.99 293.879 9470.86 290.343 9480.39L287.605 9487.78C287.278 9488.66 285.963 9488.34 286.074 9487.41L287.008 9479.59C288.214 9469.49 282.342 9459.88 272.805 9456.34L265.419 9453.61C264.538 9453.28 264.856 9451.96 265.788 9452.07L273.61 9453.01C283.71 9454.21 293.32 9448.34 296.856 9438.81L299.594 9431.42Z" fill="#FC9046"/>
<path opacity="0.5" d="M1161 9247L1161.02 9370.88L1208.45 9256.44L1161.07 9370.9L1248.68 9283.32L1161.1 9370.93L1275.56 9323.55L1161.12 9370.98L1285 9371L1161.12 9371.02L1275.56 9418.45L1161.1 9371.07L1248.68 9458.68L1161.07 9371.1L1208.45 9485.56L1161.02 9371.12L1161 9495L1160.98 9371.12L1113.55 9485.56L1160.93 9371.1L1073.32 9458.68L1160.9 9371.07L1046.44 9418.45L1160.88 9371.02L1037 9371L1160.88 9370.98L1046.44 9323.55L1160.9 9370.93L1073.32 9283.32L1160.93 9370.9L1113.55 9256.44L1160.98 9370.88L1161 9247Z" fill="#F0C3D2" stroke="#FC9046" stroke-width="4"/>
<path opacity="0.7" d="M1394.89 10198.5C1392.33 10197.7 1392.88 10192.6 1397.68 10191.8C1402.11 10190.6 1409.16 10195.7 1408.36 10204.1C1408.14 10212.2 1398.43 10221.1 1386.52 10218.7C1374.8 10217.1 1363.98 10202.9 1367.95 10187.4C1370.95 10172 1389.8 10159.2 1408.83 10164.8C1427.83 10169.2 1442.44 10192.6 1435.29 10215.2C1429.51 10237.9 1401.51 10254.4 1375.37 10245.7C1349.1 10238.6 1330.68 10206 1341.02 10176.2C1349.58 10146.3 1386.73 10125.9 1419.98 10137.8C1453.54 10147.7 1475.74 10189.5 1462.23 10226.3C1450.88 10263.6 1404.59 10287.8 1364.22 10272.7C1323.39 10260 1297.39 10209.1 1314.08 10165.1C1328.21 10120.6 1383.65 10092.6 1431.13 10110.8C1479.23 10126.3 1509.04 10186.4 1489.16 10237.5C1472.27 10289.3 1407.65 10321.1 1353.07 10299.7C1297.67 10281.4 1264.1 10212.2 1287.14 10154C1306.83 10094.9 1380.58 10059.3 1442.28 10083.9C1504.95 10104.9 1542.33 10183.3 1516.1 10248.6" stroke="#FC9046" stroke-opacity="0.5" stroke-width="3" stroke-linecap="round"/>
<g filter="url(#filter1_f_806_2164)">
<ellipse cx="146.163" cy="8429.87" rx="272.762" ry="515.723" transform="rotate(134.451 146.163 8429.87)" fill="#15A0E9" fill-opacity="0.5"/>
</g>
<g filter="url(#filter2_f_806_2164)">
<ellipse cx="1208.42" cy="7198.02" rx="272.762" ry="515.723" transform="rotate(-36.3618 1208.42 7198.02)" fill="#FC9046" fill-opacity="0.5"/>
</g>
<g filter="url(#filter3_f_806_2164)">
<ellipse cx="100.424" cy="6412.4" rx="272.762" ry="515.723" transform="rotate(27.5598 100.424 6412.4)" fill="#15A0E9" fill-opacity="0.5"/>
</g>
<path opacity="0.5" d="M341.793 6538.37C275.932 6664.57 189.263 6764.67 102.403 6824.52C15.5221 6884.38 -71.4273 6903.88 -137.956 6869.16C-204.486 6834.44 -238.208 6751.96 -238.787 6646.45C-239.365 6540.98 -206.805 6412.63 -140.944 6286.43C-75.0832 6160.24 11.5855 6060.13 98.4454 6000.29C185.326 5940.43 272.276 5920.92 338.805 5955.64C405.334 5990.36 439.056 6072.85 439.635 6178.35C440.213 6283.83 407.653 6412.18 341.793 6538.37Z" stroke="#15A0E9"/>
<path opacity="0.5" d="M330.842 6557.44C255.015 6677.91 160.552 6770.69 69.147 6823.34C-22.2801 6875.99 -110.52 6888.42 -174.031 6848.44C-237.542 6808.47 -264.499 6723.53 -256.564 6618.33C-248.631 6513.14 -205.822 6387.84 -129.995 6267.37C-54.1673 6146.9 40.2954 6054.11 131.7 6001.47C223.127 5948.82 311.367 5936.39 374.878 5976.37C438.389 6016.34 465.347 6101.28 457.412 6206.48C449.478 6311.66 406.67 6436.96 330.842 6557.44Z" stroke="#15A0E9"/>
<path opacity="0.5" d="M1456.45 6798.67C1373.4 6865.79 1251.56 6853.03 1184.22 6770.17C1130.39 6703.92 1140.58 6606.63 1206.97 6552.98C1260.09 6510.04 1338.08 6518.21 1381.16 6571.22C1415.65 6613.66 1409.13 6675.87 1366.6 6710.24C1332.57 6737.74 1282.7 6732.52 1255.1 6698.57C1233.06 6671.44 1237.23 6631.58 1264.42 6609.61C1286.19 6592.01 1318.13 6595.36 1335.79 6617.08C1349.92 6634.47 1347.26 6659.94 1329.83 6674.03C1315.91 6685.28 1295.44 6683.13 1284.15 6669.24" stroke="#FC9046" stroke-width="4.76181" stroke-linecap="round"/>
<g filter="url(#filter4_f_806_2164)">
<ellipse cx="71.4154" cy="4942.02" rx="272.762" ry="515.723" transform="rotate(-36.3618 71.4154 4942.02)" fill="#FC9046" fill-opacity="0.5"/>
</g>
<g filter="url(#filter5_f_806_2164)">
<ellipse cx="1455.42" cy="5279.4" rx="272.762" ry="515.723" transform="rotate(27.5598 1455.42 5279.4)" fill="#15A0E9" fill-opacity="0.5"/>
</g>
<g filter="url(#filter6_f_806_2164)">
<ellipse cx="43.9" cy="4352.55" rx="272.762" ry="515.723" transform="rotate(59.7271 43.9 4352.55)" fill="#15A0E9" fill-opacity="0.5"/>
</g>
<rect y="4187" width="1440" height="570" fill="white"/>
<path opacity="0.7" d="M39.8876 4751.5C37.3297 4750.7 37.8744 4745.56 42.6757 4744.76C47.1109 4743.59 54.1629 4748.71 53.355 4757.07C53.1414 4765.17 43.4281 4774.11 31.5236 4771.73C19.7959 4770.13 8.97887 4755.86 12.9511 4740.37C15.9535 4725.01 34.8014 4712.22 53.8277 4717.79C72.8287 4722.15 87.4407 4745.61 80.2915 4768.21C74.5095 4790.88 46.5131 4807.43 20.3715 4798.71C-5.89938 4791.56 -24.3246 4758.96 -13.9845 4729.23C-5.42517 4699.27 31.7333 4678.92 64.9797 4690.81C98.54 4700.75 120.738 4742.48 107.227 4779.35C95.8815 4816.57 49.5871 4840.77 9.21945 4825.68C-31.6138 4812.98 -57.6124 4762.07 -40.9202 4718.09C-26.7957 4673.56 28.6502 4645.59 76.1317 4663.84C124.232 4679.33 154.04 4739.37 134.163 4790.48C117.266 4842.3 52.6505 4874.08 -1.93261 4852.66C-57.3284 4834.39 -90.8971 4765.19 -67.8567 4706.96C-48.1721 4647.87 25.5771 4612.26 87.2838 4636.87C149.944 4657.91 187.326 4736.26 161.099 4801.62" stroke="#FC9046" stroke-width="3" stroke-linecap="round"/>
<path opacity="0.5" d="M1433 4063L1433.02 4186.88L1480.45 4072.44L1433.07 4186.9L1520.68 4099.32L1433.1 4186.93L1547.56 4139.55L1433.12 4186.98L1557 4187L1433.12 4187.02L1547.56 4234.45L1433.1 4187.07L1520.68 4274.68L1433.07 4187.1L1480.45 4301.56L1433.02 4187.12L1433 4311L1432.98 4187.12L1385.55 4301.56L1432.93 4187.1L1345.32 4274.68L1432.9 4187.07L1318.44 4234.45L1432.88 4187.02L1309 4187L1432.88 4186.98L1318.44 4139.55L1432.9 4186.93L1345.32 4099.32L1432.93 4186.9L1385.55 4072.44L1432.98 4186.88L1433 4063Z" fill="#F0C3D2" stroke="#FC9046" stroke-width="4"/>
<g filter="url(#filter7_f_806_2164)">
<ellipse cx="1206.42" cy="3556.02" rx="272.762" ry="515.723" transform="rotate(-36.3618 1206.42 3556.02)" fill="#FC9046" fill-opacity="0.5"/>
</g>
<path d="M1182.5 2393C1182.5 2654.49 968.736 2866.5 705 2866.5C441.264 2866.5 227.5 2654.49 227.5 2393C227.5 2131.51 441.264 1919.5 705 1919.5C968.736 1919.5 1182.5 2131.51 1182.5 2393Z" stroke="#FC9046" stroke-opacity="0.2" stroke-width="5"/>
<path d="M1152.5 2433C1152.5 2694.49 938.736 2906.5 675 2906.5C411.264 2906.5 197.5 2694.49 197.5 2433C197.5 2171.51 411.264 1959.5 675 1959.5C938.736 1959.5 1152.5 2171.51 1152.5 2433Z" stroke="#FC9046" stroke-opacity="0.2" stroke-width="5"/>
<g filter="url(#filter8_f_806_2164)">
<ellipse cx="158.425" cy="1385.4" rx="272.762" ry="515.723" transform="rotate(27.5598 158.425 1385.4)" fill="#15A0E9" fill-opacity="0.5"/>
</g>
<g filter="url(#filter9_f_806_2164)">
<ellipse cx="1159.42" cy="709.137" rx="272.762" ry="515.723" transform="rotate(-36.3618 1159.42 709.137)" fill="#FC9046" fill-opacity="0.5"/>
</g>
<path opacity="0.3" d="M1313.41 427.986C1403.58 538.134 1461.58 657.167 1482.49 760.555C1503.39 863.968 1487.17 951.589 1429.1 999.124C1371.03 1046.66 1281.93 1045.26 1184.68 1004.34C1087.46 963.425 982.23 883.054 892.062 772.905C801.894 662.756 743.893 543.724 722.99 440.336C702.082 336.922 718.311 249.302 776.38 201.767C834.449 154.231 923.549 155.63 1020.79 196.553C1118.02 237.466 1223.25 317.837 1313.41 427.986Z" stroke="#FC9046"/>
<path opacity="0.3" d="M1326.96 446.001C1407.7 563.23 1455.66 686.652 1467.94 791.415C1480.22 896.204 1456.8 982.181 1395 1024.75C1333.2 1067.32 1244.52 1058.56 1150.99 1009.73C1057.49 960.917 959.267 872.117 878.519 754.888C797.77 637.658 749.813 514.236 737.533 409.474C725.251 304.685 748.671 218.708 810.473 176.138C872.275 133.568 960.953 142.332 1054.48 191.158C1147.99 239.972 1246.21 328.772 1326.96 446.001Z" stroke="#FC9046"/>
</g>
<defs>
<filter id="filter0_f_806_2164" x="389.008" y="8611.79" width="1563.87" height="1682.32" filterUnits="userSpaceOnUse" color-interpolation-filters="sRGB">
<feFlood flood-opacity="0" result="BackgroundImageFix"/>
<feBlend mode="normal" in="SourceGraphic" in2="BackgroundImageFix" result="shape"/>
<feGaussianBlur stdDeviation="200" result="effect1_foregroundBlur_806_2164"/>
</filter>
<filter id="filter1_f_806_2164" x="-668.675" y="7619.49" width="1629.67" height="1620.77" filterUnits="userSpaceOnUse" color-interpolation-filters="sRGB">
<feFlood flood-opacity="0" result="BackgroundImageFix"/>
<feBlend mode="normal" in="SourceGraphic" in2="BackgroundImageFix" result="shape"/>
<feGaussianBlur stdDeviation="200" result="effect1_foregroundBlur_806_2164"/>
</filter>
<filter id="filter2_f_806_2164" x="431.906" y="6352.22" width="1553.02" height="1691.6" filterUnits="userSpaceOnUse" color-interpolation-filters="sRGB">
<feFlood flood-opacity="0" result="BackgroundImageFix"/>
<feBlend mode="normal" in="SourceGraphic" in2="BackgroundImageFix" result="shape"/>
<feGaussianBlur stdDeviation="200" result="effect1_foregroundBlur_806_2164"/>
</filter>
<filter id="filter3_f_806_2164" x="-639.294" y="5537.98" width="1479.44" height="1748.84" filterUnits="userSpaceOnUse" color-interpolation-filters="sRGB">
<feFlood flood-opacity="0" result="BackgroundImageFix"/>
<feBlend mode="normal" in="SourceGraphic" in2="BackgroundImageFix" result="shape"/>
<feGaussianBlur stdDeviation="200" result="effect1_foregroundBlur_806_2164"/>
</filter>
<filter id="filter4_f_806_2164" x="-705.094" y="4096.22" width="1553.02" height="1691.6" filterUnits="userSpaceOnUse" color-interpolation-filters="sRGB">
<feFlood flood-opacity="0" result="BackgroundImageFix"/>
<feBlend mode="normal" in="SourceGraphic" in2="BackgroundImageFix" result="shape"/>
<feGaussianBlur stdDeviation="200" result="effect1_foregroundBlur_806_2164"/>
</filter>
<filter id="filter5_f_806_2164" x="715.706" y="4404.98" width="1479.44" height="1748.84" filterUnits="userSpaceOnUse" color-interpolation-filters="sRGB">
<feFlood flood-opacity="0" result="BackgroundImageFix"/>
<feBlend mode="normal" in="SourceGraphic" in2="BackgroundImageFix" result="shape"/>
<feGaussianBlur stdDeviation="200" result="effect1_foregroundBlur_806_2164"/>
</filter>
<filter id="filter6_f_806_2164" x="-822.362" y="3601.72" width="1732.52" height="1501.67" filterUnits="userSpaceOnUse" color-interpolation-filters="sRGB">
<feFlood flood-opacity="0" result="BackgroundImageFix"/>
<feBlend mode="normal" in="SourceGraphic" in2="BackgroundImageFix" result="shape"/>
<feGaussianBlur stdDeviation="200" result="effect1_foregroundBlur_806_2164"/>
</filter>
<filter id="filter7_f_806_2164" x="229.907" y="2510.22" width="1953.02" height="2091.6" filterUnits="userSpaceOnUse" color-interpolation-filters="sRGB">
<feFlood flood-opacity="0" result="BackgroundImageFix"/>
<feBlend mode="normal" in="SourceGraphic" in2="BackgroundImageFix" result="shape"/>
<feGaussianBlur stdDeviation="300" result="effect1_foregroundBlur_806_2164"/>
</filter>
<filter id="filter8_f_806_2164" x="-581.293" y="510.982" width="1479.44" height="1748.84" filterUnits="userSpaceOnUse" color-interpolation-filters="sRGB">
<feFlood flood-opacity="0" result="BackgroundImageFix"/>
<feBlend mode="normal" in="SourceGraphic" in2="BackgroundImageFix" result="shape"/>
<feGaussianBlur stdDeviation="200" result="effect1_foregroundBlur_806_2164"/>
</filter>
<filter id="filter9_f_806_2164" x="382.906" y="-136.664" width="1553.02" height="1691.6" filterUnits="userSpaceOnUse" color-interpolation-filters="sRGB">
<feFlood flood-opacity="0" result="BackgroundImageFix"/>
<feBlend mode="normal" in="SourceGraphic" in2="BackgroundImageFix" result="shape"/>
<feGaussianBlur stdDeviation="200" result="effect1_foregroundBlur_806_2164"/>
</filter>
<clipPath id="clip0_806_2164">
<rect width="1440" height="10531" fill="white"/>
</clipPath>
</defs>
</svg>
