<svg width="59" height="59" viewBox="0 0 59 59" fill="none" xmlns="http://www.w3.org/2000/svg">
<path opacity="0.7" d="M35.4506 1.41902C35.7771 0.538616 37.0924 0.85619 36.9812 1.78858L36.0474 9.61025C34.8416 19.7101 40.7137 29.3205 50.2509 32.8563L57.6369 35.5945C58.5174 35.921 58.1998 37.2363 57.2673 37.125L49.4456 36.1913C39.3458 34.9855 29.7354 40.8576 26.1997 50.3948L23.4615 57.7808C23.1349 58.6613 21.8197 58.3437 21.9309 57.4112L22.8647 49.5895C24.0704 39.4897 18.1984 29.8793 8.6611 26.3436L1.27512 23.6053C0.394714 23.2788 0.712288 21.9636 1.64467 22.0748L9.46635 23.0086C19.5662 24.2143 29.1766 18.3423 32.7124 8.805L35.4506 1.41902Z" fill="#FC9046"/>
</svg>
